<svg xmlns="http://www.w3.org/2000/svg" width="15.75" height="11.218" viewBox="0 0 15.75 11.218">
  <path id="envelope" d="M14.273,64H1.477A1.441,1.441,0,0,0,0,65.4v8.414a1.441,1.441,0,0,0,1.477,1.4h12.8a1.441,1.441,0,0,0,1.477-1.4V65.4A1.441,1.441,0,0,0,14.273,64Zm0,1.4v1.192c-.69.533-1.789,1.363-4.14,3.111-.518.387-1.544,1.317-2.258,1.306-.714.011-1.74-.919-2.258-1.306-2.35-1.748-3.45-2.578-4.14-3.111V65.4Zm-12.8,8.414V68.394c.7.533,1.7,1.281,3.228,2.414.672.5,1.85,1.612,3.17,1.605s2.477-1.087,3.17-1.605c1.524-1.133,2.523-1.881,3.228-2.415v5.422Z" transform="translate(0 -64)" fill="#015699"/>
</svg>
