<svg xmlns="http://www.w3.org/2000/svg" width="14.005" height="14" viewBox="0 0 14.005 14">
  <path id="phone" d="M12.983.641,10.406.048a1.248,1.248,0,0,0-1.43.728L7.786,3.551a1.255,1.255,0,0,0,.358,1.46l1.094.894A8.505,8.505,0,0,1,5.842,9.3L4.947,8.206a1.255,1.255,0,0,0-1.46-.358L.708,9.038a1.251,1.251,0,0,0-.728,1.43l.593,2.576a1.247,1.247,0,0,0,1.22.971A12.153,12.153,0,0,0,13.954,1.861a1.247,1.247,0,0,0-.971-1.22ZM1.846,12.705l-.572-2.481L3.96,9.073l1.523,1.863a9.911,9.911,0,0,0,5.388-5.388L9.009,4.025,10.16,1.339l2.481.572A10.844,10.844,0,0,1,1.846,12.705Z" transform="translate(0.051 -0.015)" fill="#015699"/>
</svg>
