<svg xmlns="http://www.w3.org/2000/svg" width="25.667" height="22.815" viewBox="0 0 25.667 22.815">
  <path id="shopping" d="M1.07,2.852H19.238L19.626.864A1.07,1.07,0,0,1,20.676,0h4.456a.535.535,0,0,1,.535.535V1.6a.535.535,0,0,1-.535.535H21.556l-3.1,15.85a2.852,2.852,0,1,1-4.527.548H7.46a2.852,2.852,0,1,1-4.444-.63l-.046-.212a1.069,1.069,0,0,1,1.045-1.3H16.587l.418-2.139H3.085a1.069,1.069,0,0,1-1.045-.842L.025,4.148A1.069,1.069,0,0,1,1.07,2.852ZM16.4,21.032a1.069,1.069,0,1,0-1.069-1.069A1.071,1.071,0,0,0,16.4,21.032Zm-11.407,0a1.069,1.069,0,1,0-1.069-1.069A1.071,1.071,0,0,0,4.991,21.032ZM3.946,12.12H17.424l1.4-7.13H2.4l1.55,7.13Z" transform="translate(0)" fill="rgba(97,97,97,0.9)"/>
</svg>
